<svg width="197" height="63" viewBox="0 0 197 63" fill="none" xmlns="http://www.w3.org/2000/svg">
<g clip-path="url(#clip0)">
<path d="M24.9222 12.0251C13.1995 18.2985 8.75179 32.9866 15.0252 44.7094C21.2986 56.4321 35.9866 60.8798 47.7094 54.6064C59.4322 48.333 63.8798 33.645 57.6065 21.9222C51.3331 10.1994 36.645 5.75174 24.9222 12.0251ZM20.9728 41.5265C18.6202 37.1305 18.3486 32.0644 19.8894 27.6916C20.4965 25.9253 22.7497 25.163 24.3958 26.1671L34.6757 32.5302C35.6542 33.1154 36.2077 34.1498 36.1518 35.2885L35.7433 47.3715C35.7116 49.3844 33.7813 50.75 31.8425 50.2352C27.3435 48.8728 23.3253 45.9226 20.9728 41.5265ZM48.2358 40.4645L37.9559 34.1013C36.9774 33.5161 36.4239 32.4818 36.4798 31.343L36.8883 19.26C36.9661 17.3334 38.7641 15.9277 40.6568 16.3563C45.1497 17.5001 49.2141 20.5366 51.5666 24.9326C53.9191 29.3287 54.1908 34.3947 52.65 38.7675C52.0951 40.8386 49.928 41.5547 48.2358 40.4645Z" fill="#EACED8"/>
<path d="M23.1064 8.39366C11.3837 14.667 6.93599 29.3551 13.2094 41.0779C19.4828 52.8007 34.1708 57.2483 45.8936 50.9749C57.6164 44.7016 62.064 30.0135 55.7907 18.2907C49.5173 6.56795 34.8292 2.12027 23.1064 8.39366ZM19.157 37.8951C16.8044 33.499 16.5328 28.433 18.0736 24.0602C18.6807 22.2938 20.9339 21.5315 22.58 22.5356L32.8599 28.8988C33.8384 29.484 34.3919 30.5183 34.336 31.6571L33.9275 43.7401C33.8958 45.7529 31.9655 47.1185 30.0267 46.6037C25.5277 45.2413 21.5095 42.2911 19.157 37.8951ZM46.42 36.833L36.1401 30.4699C35.1616 29.8847 34.6081 28.8503 34.664 27.7115L35.0725 15.6285C35.1503 13.7019 36.9483 12.2962 38.841 12.7248C43.3339 13.8687 47.3983 16.9051 49.7508 21.3012C52.1033 25.6972 52.375 30.7633 50.8342 35.136C50.2793 37.2071 48.1123 37.9233 46.42 36.833Z" fill="#EA3A72"/>
<path d="M40.6802 38.4302L36.5808 31.7308C36.4844 31.5713 36.3397 31.4118 36.195 31.3055L35.8574 31.0396C35.4716 30.7206 35.4716 30.1357 35.8574 29.8167L36.1468 29.604C36.2915 29.4977 36.4361 29.3382 36.5326 29.1787L40.7284 22.5857C41.066 22.0008 41.1142 21.2565 40.7284 20.7248C40.2461 20.0336 39.378 19.8741 38.7511 20.3526L32.6744 24.872C32.5297 24.9783 32.385 25.1378 32.2886 25.2973L32.0474 25.6695C31.7581 26.0949 31.2276 26.0949 30.9382 25.6695L30.7453 25.3505C30.6488 25.191 30.5041 25.0315 30.3595 24.9251L24.3792 20.2994C23.8487 19.9272 23.1735 19.8741 22.6913 20.2994C22.0643 20.8311 21.9196 21.7882 22.3537 22.4794L26.453 29.1787C26.5495 29.3382 26.6942 29.4977 26.8388 29.604L27.1764 29.8699C27.5623 30.1889 27.5623 30.7738 27.1764 31.0928L26.8871 31.3055C26.7424 31.4118 26.5977 31.5713 26.5013 31.7308L22.2572 38.377C21.8714 39.015 21.9196 39.8657 22.4019 40.3974C22.8842 40.9291 23.6558 41.0354 24.2345 40.6101L30.3112 36.0907C30.4559 35.9844 30.6006 35.8249 30.6971 35.6653L30.9382 35.2932C31.2276 34.8678 31.7581 34.8678 32.0474 35.2932L32.2403 35.6122C32.3368 35.7717 32.4815 35.9312 32.6262 36.0375L38.7029 40.7164C39.2816 41.1418 40.0532 41.0886 40.5355 40.5569C41.0178 39.9189 41.066 39.0682 40.6802 38.4302Z" fill="#516184"/>
<g clip-path="url(#clip1)">
<path fill-rule="evenodd" clip-rule="evenodd" d="M60.4976 5.73389C60.498 5.33634 60.3454 4.96337 60.0658 4.68411C59.784 4.40276 59.4101 4.25003 59.0139 4.25243L49.5958 4.38958C49.0474 4.39349 48.6019 4.83959 48.5989 5.38806C48.5958 5.93652 49.0391 6.37915 49.5869 6.37454L58.5096 6.24126L58.3893 15.1635C58.3862 15.7119 58.8295 16.1546 59.3786 16.1514C59.9271 16.1474 60.3725 15.7013 60.3742 15.1515L60.4976 5.73389Z" fill="black"/>
</g>
<g clip-path="url(#clip2)">
<path fill-rule="evenodd" clip-rule="evenodd" d="M7.25299 54.1997C7.25229 54.5972 7.4046 54.9703 7.68407 55.2498C7.96564 55.5314 8.33943 55.6844 8.73558 55.6823L18.1538 55.5523C18.7022 55.5488 19.148 55.1031 19.1515 54.5546C19.155 54.0062 18.712 53.5632 18.1643 53.5674L9.24143 53.6938L9.36859 44.7717C9.37208 44.2233 8.92912 43.7803 8.37996 43.7831C7.83149 43.7866 7.38574 44.2323 7.38364 44.7822L7.25299 54.1997Z" fill="black"/>
</g>
<path d="M43.6465 38.4302L39.1157 31.7308C39.0091 31.5713 38.8491 31.4118 38.6892 31.3055L38.3161 31.0396C37.8897 30.7206 37.8897 30.1357 38.3161 29.8167L38.6359 29.604C38.7958 29.4977 38.9557 29.3382 39.0624 29.1787L43.6998 22.5857C44.073 22.0008 44.1263 21.2565 43.6998 20.7248C43.1668 20.0336 42.2073 19.8741 41.5144 20.3526L34.798 24.872C34.6381 24.9783 34.4782 25.1378 34.3716 25.2973L34.1051 25.6695C33.7852 26.0949 33.1989 26.0949 32.8791 25.6695L32.6658 25.3505C32.5592 25.191 32.3993 25.0315 32.2394 24.9251L25.6297 20.2994C25.0433 19.9272 24.2971 19.8741 23.764 20.2994C23.0711 20.8311 22.9112 21.7882 23.3909 22.4794L27.9218 29.1787C28.0284 29.3382 28.1883 29.4977 28.3482 29.604L28.7213 29.8699C29.1478 30.1889 29.1478 30.7738 28.7213 31.0928L28.4015 31.3055C28.2416 31.4118 28.0817 31.5713 27.9751 31.7308L23.2843 38.377C22.8579 39.015 22.9112 39.8657 23.4442 40.3974C23.9772 40.9291 24.8301 41.0354 25.4698 40.6101L32.1861 36.0907C32.346 35.9844 32.5059 35.8249 32.6125 35.6653L32.8791 35.2932C33.1989 34.8678 33.7852 34.8678 34.1051 35.2932L34.3183 35.6122C34.4249 35.7717 34.5848 35.9312 34.7447 36.0375L41.461 40.7164C42.1007 41.1418 42.9536 41.0886 43.4866 40.5569C44.0197 39.9189 44.073 39.0682 43.6465 38.4302Z" fill="#132744"/>
<g filter="url(#filter0_b)">
<path d="M75.98 25.52H70.74L69.9 28H66.32L71.4 13.96H75.36L80.44 28H76.82L75.98 25.52ZM75.1 22.88L73.36 17.74L71.64 22.88H75.1ZM88.2461 13.96C89.7261 13.96 91.0194 14.2533 92.1261 14.84C93.2328 15.4267 94.0861 16.2533 94.6861 17.32C95.2994 18.3733 95.6061 19.5933 95.6061 20.98C95.6061 22.3533 95.2994 23.5733 94.6861 24.64C94.0861 25.7067 93.2261 26.5333 92.1061 27.12C90.9994 27.7067 89.7128 28 88.2461 28H82.9861V13.96H88.2461ZM88.0261 25.04C89.3194 25.04 90.3261 24.6867 91.0461 23.98C91.7661 23.2733 92.1261 22.2733 92.1261 20.98C92.1261 19.6867 91.7661 18.68 91.0461 17.96C90.3261 17.24 89.3194 16.88 88.0261 16.88H86.4061V25.04H88.0261ZM103.777 13.96C105.257 13.96 106.551 14.2533 107.657 14.84C108.764 15.4267 109.617 16.2533 110.217 17.32C110.831 18.3733 111.137 19.5933 111.137 20.98C111.137 22.3533 110.831 23.5733 110.217 24.64C109.617 25.7067 108.757 26.5333 107.637 27.12C106.531 27.7067 105.244 28 103.777 28H98.5173V13.96H103.777ZM103.557 25.04C104.851 25.04 105.857 24.6867 106.577 23.98C107.297 23.2733 107.657 22.2733 107.657 20.98C107.657 19.6867 107.297 18.68 106.577 17.96C105.857 17.24 104.851 16.88 103.557 16.88H101.937V25.04H103.557ZM121.209 28L118.289 22.7H117.469V28H114.049V13.96H119.789C120.895 13.96 121.835 14.1533 122.609 14.54C123.395 14.9267 123.982 15.46 124.369 16.14C124.755 16.8067 124.949 17.5533 124.949 18.38C124.949 19.3133 124.682 20.1467 124.149 20.88C123.629 21.6133 122.855 22.1333 121.829 22.44L125.069 28H121.209ZM117.469 20.28H119.589C120.215 20.28 120.682 20.1267 120.989 19.82C121.309 19.5133 121.469 19.08 121.469 18.52C121.469 17.9867 121.309 17.5667 120.989 17.26C120.682 16.9533 120.215 16.8 119.589 16.8H117.469V20.28ZM131.515 16.7V19.54H136.095V22.18H131.515V25.26H136.695V28H128.095V13.96H136.695V16.7H131.515ZM144.996 28.14C143.969 28.14 143.049 27.9733 142.236 27.64C141.422 27.3067 140.769 26.8133 140.276 26.16C139.796 25.5067 139.542 24.72 139.516 23.8H143.156C143.209 24.32 143.389 24.72 143.696 25C144.002 25.2667 144.402 25.4 144.896 25.4C145.402 25.4 145.802 25.2867 146.096 25.06C146.389 24.82 146.536 24.4933 146.536 24.08C146.536 23.7333 146.416 23.4467 146.176 23.22C145.949 22.9933 145.662 22.8067 145.316 22.66C144.982 22.5133 144.502 22.3467 143.876 22.16C142.969 21.88 142.229 21.6 141.656 21.32C141.082 21.04 140.589 20.6267 140.176 20.08C139.762 19.5333 139.556 18.82 139.556 17.94C139.556 16.6333 140.029 15.6133 140.976 14.88C141.922 14.1333 143.156 13.76 144.676 13.76C146.222 13.76 147.469 14.1333 148.416 14.88C149.362 15.6133 149.869 16.64 149.936 17.96H146.236C146.209 17.5067 146.042 17.1533 145.736 16.9C145.429 16.6333 145.036 16.5 144.556 16.5C144.142 16.5 143.809 16.6133 143.556 16.84C143.302 17.0533 143.176 17.3667 143.176 17.78C143.176 18.2333 143.389 18.5867 143.816 18.84C144.242 19.0933 144.909 19.3667 145.816 19.66C146.722 19.9667 147.456 20.26 148.016 20.54C148.589 20.82 149.082 21.2267 149.496 21.76C149.909 22.2933 150.116 22.98 150.116 23.82C150.116 24.62 149.909 25.3467 149.496 26C149.096 26.6533 148.509 27.1733 147.736 27.56C146.962 27.9467 146.049 28.14 144.996 28.14ZM158.3 28.14C157.274 28.14 156.354 27.9733 155.54 27.64C154.727 27.3067 154.074 26.8133 153.58 26.16C153.1 25.5067 152.847 24.72 152.82 23.8H156.46C156.514 24.32 156.694 24.72 157 25C157.307 25.2667 157.707 25.4 158.2 25.4C158.707 25.4 159.107 25.2867 159.4 25.06C159.694 24.82 159.84 24.4933 159.84 24.08C159.84 23.7333 159.72 23.4467 159.48 23.22C159.254 22.9933 158.967 22.8067 158.62 22.66C158.287 22.5133 157.807 22.3467 157.18 22.16C156.274 21.88 155.534 21.6 154.96 21.32C154.387 21.04 153.894 20.6267 153.48 20.08C153.067 19.5333 152.86 18.82 152.86 17.94C152.86 16.6333 153.334 15.6133 154.28 14.88C155.227 14.1333 156.46 13.76 157.98 13.76C159.527 13.76 160.774 14.1333 161.72 14.88C162.667 15.6133 163.174 16.64 163.24 17.96H159.54C159.514 17.5067 159.347 17.1533 159.04 16.9C158.734 16.6333 158.34 16.5 157.86 16.5C157.447 16.5 157.114 16.6133 156.86 16.84C156.607 17.0533 156.48 17.3667 156.48 17.78C156.48 18.2333 156.694 18.5867 157.12 18.84C157.547 19.0933 158.214 19.3667 159.12 19.66C160.027 19.9667 160.76 20.26 161.32 20.54C161.894 20.82 162.387 21.2267 162.8 21.76C163.214 22.2933 163.42 22.98 163.42 23.82C163.42 24.62 163.214 25.3467 162.8 26C162.4 26.6533 161.814 27.1733 161.04 27.56C160.267 27.9467 159.354 28.14 158.3 28.14ZM169.945 16.7V19.54H174.525V22.18H169.945V25.26H175.125V28H166.525V13.96H175.125V16.7H169.945ZM183.425 28.14C182.399 28.14 181.479 27.9733 180.665 27.64C179.852 27.3067 179.199 26.8133 178.705 26.16C178.225 25.5067 177.972 24.72 177.945 23.8H181.585C181.639 24.32 181.819 24.72 182.125 25C182.432 25.2667 182.832 25.4 183.325 25.4C183.832 25.4 184.232 25.2867 184.525 25.06C184.819 24.82 184.965 24.4933 184.965 24.08C184.965 23.7333 184.845 23.4467 184.605 23.22C184.379 22.9933 184.092 22.8067 183.745 22.66C183.412 22.5133 182.932 22.3467 182.305 22.16C181.399 21.88 180.659 21.6 180.085 21.32C179.512 21.04 179.019 20.6267 178.605 20.08C178.192 19.5333 177.985 18.82 177.985 17.94C177.985 16.6333 178.459 15.6133 179.405 14.88C180.352 14.1333 181.585 13.76 183.105 13.76C184.652 13.76 185.899 14.1333 186.845 14.88C187.792 15.6133 188.299 16.64 188.365 17.96H184.665C184.639 17.5067 184.472 17.1533 184.165 16.9C183.859 16.6333 183.465 16.5 182.985 16.5C182.572 16.5 182.239 16.6133 181.985 16.84C181.732 17.0533 181.605 17.3667 181.605 17.78C181.605 18.2333 181.819 18.5867 182.245 18.84C182.672 19.0933 183.339 19.3667 184.245 19.66C185.152 19.9667 185.885 20.26 186.445 20.54C187.019 20.82 187.512 21.2267 187.925 21.76C188.339 22.2933 188.545 22.98 188.545 23.82C188.545 24.62 188.339 25.3467 187.925 26C187.525 26.6533 186.939 27.1733 186.165 27.56C185.392 27.9467 184.479 28.14 183.425 28.14Z" fill="black"/>
</g>
<path d="M77.528 32.636C78.44 32.636 79.228 32.808 79.892 33.152C80.564 33.488 81.076 33.972 81.428 34.604C81.788 35.236 81.968 35.98 81.968 36.836C81.968 37.692 81.788 38.436 81.428 39.068C81.076 39.692 80.564 40.172 79.892 40.508C79.228 40.836 78.44 41 77.528 41H74.924V32.636H77.528ZM77.528 40.1C78.608 40.1 79.432 39.816 80 39.248C80.568 38.672 80.852 37.868 80.852 36.836C80.852 35.796 80.564 34.984 79.988 34.4C79.42 33.816 78.6 33.524 77.528 33.524H76.016V40.1H77.528ZM90.4284 37.46C90.4284 37.668 90.4164 37.888 90.3924 38.12H85.1364C85.1764 38.768 85.3964 39.276 85.7964 39.644C86.2044 40.004 86.6964 40.184 87.2724 40.184C87.7444 40.184 88.1364 40.076 88.4484 39.86C88.7684 39.636 88.9924 39.34 89.1204 38.972H90.2964C90.1204 39.604 89.7684 40.12 89.2404 40.52C88.7124 40.912 88.0564 41.108 87.2724 41.108C86.6484 41.108 86.0884 40.968 85.5924 40.688C85.1044 40.408 84.7204 40.012 84.4404 39.5C84.1604 38.98 84.0204 38.38 84.0204 37.7C84.0204 37.02 84.1564 36.424 84.4284 35.912C84.7004 35.4 85.0804 35.008 85.5684 34.736C86.0644 34.456 86.6324 34.316 87.2724 34.316C87.8964 34.316 88.4484 34.452 88.9284 34.724C89.4084 34.996 89.7764 35.372 90.0324 35.852C90.2964 36.324 90.4284 36.86 90.4284 37.46ZM89.3004 37.232C89.3004 36.816 89.2084 36.46 89.0244 36.164C88.8404 35.86 88.5884 35.632 88.2684 35.48C87.9564 35.32 87.6084 35.24 87.2244 35.24C86.6724 35.24 86.2004 35.416 85.8084 35.768C85.4244 36.12 85.2044 36.608 85.1484 37.232H89.3004ZM93.9818 32.12V41H92.8898V32.12H93.9818ZM97.4269 33.356C97.2189 33.356 97.0429 33.284 96.8989 33.14C96.7549 32.996 96.6829 32.82 96.6829 32.612C96.6829 32.404 96.7549 32.228 96.8989 32.084C97.0429 31.94 97.2189 31.868 97.4269 31.868C97.6269 31.868 97.7949 31.94 97.9309 32.084C98.0749 32.228 98.1469 32.404 98.1469 32.612C98.1469 32.82 98.0749 32.996 97.9309 33.14C97.7949 33.284 97.6269 33.356 97.4269 33.356ZM97.9549 34.424V41H96.8629V34.424H97.9549ZM103.284 39.992L105.324 34.424H106.488L103.908 41H102.636L100.056 34.424H101.232L103.284 39.992ZM114.583 37.46C114.583 37.668 114.571 37.888 114.547 38.12H109.291C109.331 38.768 109.551 39.276 109.951 39.644C110.359 40.004 110.851 40.184 111.427 40.184C111.899 40.184 112.291 40.076 112.603 39.86C112.923 39.636 113.147 39.34 113.275 38.972H114.451C114.275 39.604 113.923 40.12 113.395 40.52C112.867 40.912 112.211 41.108 111.427 41.108C110.803 41.108 110.243 40.968 109.747 40.688C109.259 40.408 108.875 40.012 108.595 39.5C108.315 38.98 108.175 38.38 108.175 37.7C108.175 37.02 108.311 36.424 108.583 35.912C108.855 35.4 109.235 35.008 109.723 34.736C110.219 34.456 110.787 34.316 111.427 34.316C112.051 34.316 112.603 34.452 113.083 34.724C113.563 34.996 113.931 35.372 114.187 35.852C114.451 36.324 114.583 36.86 114.583 37.46ZM113.455 37.232C113.455 36.816 113.363 36.46 113.179 36.164C112.995 35.86 112.743 35.632 112.423 35.48C112.111 35.32 111.763 35.24 111.379 35.24C110.827 35.24 110.355 35.416 109.963 35.768C109.579 36.12 109.359 36.608 109.303 37.232H113.455ZM118.136 35.492C118.328 35.116 118.6 34.824 118.952 34.616C119.312 34.408 119.748 34.304 120.26 34.304V35.432H119.972C118.748 35.432 118.136 36.096 118.136 37.424V41H117.044V34.424H118.136V35.492ZM128.205 34.424L124.245 44.096H123.117L124.413 40.928L121.761 34.424H122.973L125.037 39.752L127.077 34.424H128.205ZM137.194 41.084C136.642 41.084 136.146 40.988 135.706 40.796C135.274 40.596 134.934 40.324 134.686 39.98C134.438 39.628 134.31 39.224 134.302 38.768H135.466C135.506 39.16 135.666 39.492 135.946 39.764C136.234 40.028 136.65 40.16 137.194 40.16C137.714 40.16 138.122 40.032 138.418 39.776C138.722 39.512 138.874 39.176 138.874 38.768C138.874 38.448 138.786 38.188 138.61 37.988C138.434 37.788 138.214 37.636 137.95 37.532C137.686 37.428 137.33 37.316 136.882 37.196C136.33 37.052 135.886 36.908 135.55 36.764C135.222 36.62 134.938 36.396 134.698 36.092C134.466 35.78 134.35 35.364 134.35 34.844C134.35 34.388 134.466 33.984 134.698 33.632C134.93 33.28 135.254 33.008 135.67 32.816C136.094 32.624 136.578 32.528 137.122 32.528C137.906 32.528 138.546 32.724 139.042 33.116C139.546 33.508 139.83 34.028 139.894 34.676H138.694C138.654 34.356 138.486 34.076 138.19 33.836C137.894 33.588 137.502 33.464 137.014 33.464C136.558 33.464 136.186 33.584 135.898 33.824C135.61 34.056 135.466 34.384 135.466 34.808C135.466 35.112 135.55 35.36 135.718 35.552C135.894 35.744 136.106 35.892 136.354 35.996C136.61 36.092 136.966 36.204 137.422 36.332C137.974 36.484 138.418 36.636 138.754 36.788C139.09 36.932 139.378 37.16 139.618 37.472C139.858 37.776 139.978 38.192 139.978 38.72C139.978 39.128 139.87 39.512 139.654 39.872C139.438 40.232 139.118 40.524 138.694 40.748C138.27 40.972 137.77 41.084 137.194 41.084ZM148.604 37.46C148.604 37.668 148.592 37.888 148.568 38.12H143.312C143.352 38.768 143.572 39.276 143.972 39.644C144.38 40.004 144.872 40.184 145.448 40.184C145.92 40.184 146.312 40.076 146.624 39.86C146.944 39.636 147.168 39.34 147.296 38.972H148.472C148.296 39.604 147.944 40.12 147.416 40.52C146.888 40.912 146.232 41.108 145.448 41.108C144.824 41.108 144.264 40.968 143.768 40.688C143.28 40.408 142.896 40.012 142.616 39.5C142.336 38.98 142.196 38.38 142.196 37.7C142.196 37.02 142.332 36.424 142.604 35.912C142.876 35.4 143.256 35.008 143.744 34.736C144.24 34.456 144.808 34.316 145.448 34.316C146.072 34.316 146.624 34.452 147.104 34.724C147.584 34.996 147.952 35.372 148.208 35.852C148.472 36.324 148.604 36.86 148.604 37.46ZM147.476 37.232C147.476 36.816 147.384 36.46 147.2 36.164C147.016 35.86 146.764 35.632 146.444 35.48C146.132 35.32 145.784 35.24 145.4 35.24C144.848 35.24 144.376 35.416 143.984 35.768C143.6 36.12 143.38 36.608 143.324 37.232H147.476ZM152.158 35.492C152.35 35.116 152.622 34.824 152.974 34.616C153.334 34.408 153.77 34.304 154.282 34.304V35.432H153.994C152.77 35.432 152.158 36.096 152.158 37.424V41H151.066V34.424H152.158V35.492ZM159.01 39.992L161.05 34.424H162.214L159.634 41H158.362L155.782 34.424H156.958L159.01 39.992ZM164.873 33.356C164.665 33.356 164.489 33.284 164.345 33.14C164.201 32.996 164.129 32.82 164.129 32.612C164.129 32.404 164.201 32.228 164.345 32.084C164.489 31.94 164.665 31.868 164.873 31.868C165.073 31.868 165.241 31.94 165.377 32.084C165.521 32.228 165.593 32.404 165.593 32.612C165.593 32.82 165.521 32.996 165.377 33.14C165.241 33.284 165.073 33.356 164.873 33.356ZM165.401 34.424V41H164.309V34.424H165.401ZM167.874 37.7C167.874 37.02 168.01 36.428 168.282 35.924C168.554 35.412 168.93 35.016 169.41 34.736C169.898 34.456 170.454 34.316 171.078 34.316C171.886 34.316 172.55 34.512 173.07 34.904C173.598 35.296 173.946 35.84 174.114 36.536H172.938C172.826 36.136 172.606 35.82 172.278 35.588C171.958 35.356 171.558 35.24 171.078 35.24C170.454 35.24 169.95 35.456 169.566 35.888C169.182 36.312 168.99 36.916 168.99 37.7C168.99 38.492 169.182 39.104 169.566 39.536C169.95 39.968 170.454 40.184 171.078 40.184C171.558 40.184 171.958 40.072 172.278 39.848C172.598 39.624 172.818 39.304 172.938 38.888H174.114C173.938 39.56 173.586 40.1 173.058 40.508C172.53 40.908 171.87 41.108 171.078 41.108C170.454 41.108 169.898 40.968 169.41 40.688C168.93 40.408 168.554 40.012 168.282 39.5C168.01 38.988 167.874 38.388 167.874 37.7ZM182.591 37.46C182.591 37.668 182.579 37.888 182.555 38.12H177.299C177.339 38.768 177.559 39.276 177.959 39.644C178.367 40.004 178.859 40.184 179.435 40.184C179.907 40.184 180.299 40.076 180.611 39.86C180.931 39.636 181.155 39.34 181.283 38.972H182.459C182.283 39.604 181.931 40.12 181.403 40.52C180.875 40.912 180.219 41.108 179.435 41.108C178.811 41.108 178.251 40.968 177.755 40.688C177.267 40.408 176.883 40.012 176.603 39.5C176.323 38.98 176.183 38.38 176.183 37.7C176.183 37.02 176.319 36.424 176.591 35.912C176.863 35.4 177.243 35.008 177.731 34.736C178.227 34.456 178.795 34.316 179.435 34.316C180.059 34.316 180.611 34.452 181.091 34.724C181.571 34.996 181.939 35.372 182.195 35.852C182.459 36.324 182.591 36.86 182.591 37.46ZM181.463 37.232C181.463 36.816 181.371 36.46 181.187 36.164C181.003 35.86 180.751 35.632 180.431 35.48C180.119 35.32 179.771 35.24 179.387 35.24C178.835 35.24 178.363 35.416 177.971 35.768C177.587 36.12 177.367 36.608 177.311 37.232H181.463ZM187.381 41.108C186.877 41.108 186.425 41.024 186.025 40.856C185.625 40.68 185.309 40.44 185.077 40.136C184.845 39.824 184.717 39.468 184.693 39.068H185.821C185.853 39.396 186.005 39.664 186.277 39.872C186.557 40.08 186.921 40.184 187.369 40.184C187.785 40.184 188.113 40.092 188.353 39.908C188.593 39.724 188.713 39.492 188.713 39.212C188.713 38.924 188.585 38.712 188.329 38.576C188.073 38.432 187.677 38.292 187.141 38.156C186.653 38.028 186.253 37.9 185.941 37.772C185.637 37.636 185.373 37.44 185.149 37.184C184.933 36.92 184.825 36.576 184.825 36.152C184.825 35.816 184.925 35.508 185.125 35.228C185.325 34.948 185.609 34.728 185.977 34.568C186.345 34.4 186.765 34.316 187.237 34.316C187.965 34.316 188.553 34.5 189.001 34.868C189.449 35.236 189.689 35.74 189.721 36.38H188.629C188.605 36.036 188.465 35.76 188.209 35.552C187.961 35.344 187.625 35.24 187.201 35.24C186.809 35.24 186.497 35.324 186.265 35.492C186.033 35.66 185.917 35.88 185.917 36.152C185.917 36.368 185.985 36.548 186.121 36.692C186.265 36.828 186.441 36.94 186.649 37.028C186.865 37.108 187.161 37.2 187.537 37.304C188.009 37.432 188.393 37.56 188.689 37.688C188.985 37.808 189.237 37.992 189.445 38.24C189.661 38.488 189.773 38.812 189.781 39.212C189.781 39.572 189.681 39.896 189.481 40.184C189.281 40.472 188.997 40.7 188.629 40.868C188.269 41.028 187.853 41.108 187.381 41.108Z" fill="black"/>
</g>
<defs>
<filter id="filter0_b" x="62.32" y="9.76001" width="130.225" height="22.38" filterUnits="userSpaceOnUse" color-interpolation-filters="sRGB">
<feFlood flood-opacity="0" result="BackgroundImageFix"/>
<feGaussianBlur in="BackgroundImage" stdDeviation="2"/>
<feComposite in2="SourceAlpha" operator="in" result="effect1_backgroundBlur"/>
<feBlend mode="normal" in="SourceGraphic" in2="effect1_backgroundBlur" result="shape"/>
</filter>
<clipPath id="clip0">
<rect width="197" height="63" fill="white"/>
</clipPath>
<clipPath id="clip1">
<rect width="15.8093" height="15.8093" fill="white" transform="translate(45.3948 8.18738) rotate(-45.0438)"/>
</clipPath>
<clipPath id="clip2">
<rect width="15.8093" height="15.8093" fill="white" transform="translate(22.3577 51.7578) rotate(135)"/>
</clipPath>
</defs>
</svg>
