<svg width="36" height="36" viewBox="0 0 36 36" fill="none" xmlns="http://www.w3.org/2000/svg">
<g clip-path="url(#clip0)">
<path d="M14.0864 8.49279C7.46052 12.0386 4.94663 20.3405 8.49244 26.9664C12.0383 33.5923 20.3402 36.1062 26.9661 32.5604C33.592 29.0146 36.1059 20.7127 32.5601 14.0868C29.0142 7.46087 20.7123 4.94697 14.0864 8.49279ZM11.8541 25.1675C10.5244 22.6827 10.3709 19.8193 11.2418 17.3478C11.5849 16.3494 12.8585 15.9185 13.7889 16.486L19.5992 20.0826C20.1523 20.4134 20.4652 20.998 20.4336 21.6416L20.2027 28.4711C20.1848 29.6088 19.0937 30.3807 17.9979 30.0897C15.4549 29.3197 13.1838 27.6522 11.8541 25.1675ZM27.2636 24.5671L21.4533 20.9706C20.9002 20.6398 20.5873 20.0552 20.6189 19.4116L20.8498 12.5821C20.8938 11.4931 21.9101 10.6986 22.9798 10.9408C25.5193 11.5873 27.8166 13.3036 29.1462 15.7883C30.4759 18.273 30.6295 21.1364 29.7586 23.608C29.4449 24.7786 28.2201 25.1834 27.2636 24.5671Z" fill="#EACED8"/>
<path d="M13.0601 6.43957C6.43421 9.98538 3.92032 18.2873 7.46614 24.9132C11.012 31.5391 19.3139 34.053 25.9398 30.5072C32.5657 26.9614 35.0796 18.6595 31.5338 12.0336C27.9879 5.40765 19.686 2.89375 13.0601 6.43957ZM10.8278 23.1142C9.49813 20.6295 9.34457 17.7661 10.2155 15.2945C10.5586 14.2962 11.8322 13.8653 12.7626 14.4328L18.5729 18.0294C19.126 18.3601 19.4388 18.9448 19.4072 19.5884L19.1763 26.4179C19.1584 27.5556 18.0674 28.3275 16.9716 28.0365C14.4286 27.2665 12.1575 25.5989 10.8278 23.1142ZM26.2373 22.5139L20.4269 18.9174C19.8739 18.5866 19.561 18.002 19.5926 17.3583L19.8235 10.5288C19.8675 9.43988 20.8838 8.64534 21.9535 8.88762C24.493 9.53413 26.7903 11.2504 28.1199 13.7351C29.4496 16.2198 29.6032 19.0832 28.7323 21.5548C28.4186 22.7254 27.1938 23.1302 26.2373 22.5139Z" fill="#EA3A72"/>
<path d="M22.8148 22.6539L20.4415 19.1447C20.3857 19.0612 20.3019 18.9776 20.2182 18.9219L20.0227 18.7827C19.7993 18.6156 19.7993 18.3092 20.0227 18.1421L20.1902 18.0307C20.274 17.975 20.3578 17.8914 20.4136 17.8079L22.8428 14.3544C23.0382 14.0481 23.0661 13.6581 22.8428 13.3796C22.5636 13.0176 22.061 12.934 21.698 13.1847L18.1799 15.552C18.0961 15.6077 18.0124 15.6912 17.9565 15.7748L17.8169 15.9697C17.6494 16.1926 17.3423 16.1926 17.1747 15.9697L17.0631 15.8026C17.0072 15.7191 16.9235 15.6355 16.8397 15.5798L13.3774 13.1568C13.0703 12.9619 12.6794 12.934 12.4002 13.1568C12.0372 13.4353 11.9535 13.9367 12.2048 14.2987L14.5781 17.8079C14.6339 17.8914 14.7177 17.975 14.8014 18.0307L14.9969 18.1699C15.2203 18.337 15.2203 18.6434 14.9969 18.8105L14.8294 18.9219C14.7456 18.9776 14.6618 19.0612 14.606 19.1447L12.1489 22.626C11.9255 22.9602 11.9535 23.4059 12.2327 23.6844C12.5119 23.9629 12.9586 24.0186 13.2937 23.7958L16.8118 21.4285C16.8955 21.3728 16.9793 21.2892 17.0351 21.2057L17.1747 21.0107C17.3423 20.7879 17.6494 20.7879 17.8169 21.0107L17.9286 21.1778C17.9845 21.2614 18.0682 21.3449 18.152 21.4006L21.6701 23.8515C22.0051 24.0743 22.4519 24.0464 22.7311 23.7679C23.0103 23.4337 23.0382 22.9881 22.8148 22.6539Z" fill="#516184"/>
<g clip-path="url(#clip1)">
<path fill-rule="evenodd" clip-rule="evenodd" d="M34.1943 4.93649C34.1945 4.71179 34.1082 4.50097 33.9502 4.34313C33.7909 4.18411 33.5795 4.09779 33.3556 4.09914L28.0324 4.17666C27.7224 4.17887 27.4706 4.43102 27.4689 4.74102C27.4672 5.05102 27.7177 5.3012 28.0273 5.29859L33.0706 5.22326L33.0026 10.2662C33.0008 10.5762 33.2514 10.8264 33.5618 10.8246C33.8718 10.8224 34.1235 10.5702 34.1245 10.2595L34.1943 4.93649V4.93649Z" fill="black"/>
</g>
<g clip-path="url(#clip2)">
<path fill-rule="evenodd" clip-rule="evenodd" d="M4.09947 32.3302C4.09907 32.5549 4.18516 32.7657 4.34312 32.9237C4.50227 33.0829 4.71355 33.1693 4.93746 33.1682L10.2608 33.0947C10.5708 33.0927 10.8227 32.8408 10.8247 32.5308C10.8267 32.2208 10.5763 31.9704 10.2667 31.9728L5.22337 32.0443L5.29524 27.0013C5.29721 26.6913 5.04684 26.441 4.73645 26.4425C4.42645 26.4445 4.1745 26.6965 4.17332 27.0073L4.09947 32.3302V32.3302Z" fill="black"/>
</g>
<path d="M23.8148 22.6539L21.4415 19.1447C21.3857 19.0612 21.3019 18.9776 21.2182 18.9219L21.0227 18.7827C20.7993 18.6156 20.7993 18.3092 21.0227 18.1421L21.1902 18.0307C21.274 17.975 21.3578 17.8914 21.4136 17.8079L23.8428 14.3544C24.0382 14.0481 24.0661 13.6581 23.8428 13.3796C23.5636 13.0176 23.061 12.934 22.698 13.1847L19.1799 15.552C19.0961 15.6077 19.0124 15.6912 18.9565 15.7748L18.8169 15.9697C18.6494 16.1926 18.3423 16.1926 18.1747 15.9697L18.0631 15.8026C18.0072 15.7191 17.9235 15.6355 17.8397 15.5798L14.3774 13.1568C14.0703 12.9619 13.6794 12.934 13.4002 13.1568C13.0372 13.4353 12.9535 13.9367 13.2048 14.2987L15.5781 17.8079C15.6339 17.8914 15.7177 17.975 15.8014 18.0307L15.9969 18.1699C16.2203 18.337 16.2203 18.6434 15.9969 18.8105L15.8294 18.9219C15.7456 18.9776 15.6618 19.0612 15.606 19.1447L13.1489 22.626C12.9255 22.9602 12.9535 23.4059 13.2327 23.6844C13.5119 23.9629 13.9586 24.0186 14.2937 23.7958L17.8118 21.4285C17.8955 21.3728 17.9793 21.2892 18.0351 21.2057L18.1747 21.0107C18.3423 20.7879 18.6494 20.7879 18.8169 21.0107L18.9286 21.1778C18.9845 21.2614 19.0682 21.3449 19.152 21.4006L22.6701 23.8515C23.0051 24.0743 23.4519 24.0464 23.7311 23.7679C24.0103 23.4337 24.0382 22.9881 23.8148 22.6539Z" fill="#132744"/>
</g>
<defs>
<clipPath id="clip0">
<rect width="36" height="36" fill="white"/>
</clipPath>
<clipPath id="clip1">
<rect width="8.93567" height="8.93567" fill="white" transform="translate(25.6579 6.32324) rotate(-45.0438)"/>
</clipPath>
<clipPath id="clip2">
<rect width="8.93567" height="8.93567" fill="white" transform="translate(12.6369 30.9502) rotate(135)"/>
</clipPath>
</defs>
</svg>
