<svg width="38" height="36" viewBox="0 0 38 36" fill="none" xmlns="http://www.w3.org/2000/svg">
<g clip-path="url(#clip0)">
<path d="M12.7253 6.27472C6.26925 9.72963 3.81982 17.8187 7.27473 24.2747C10.7296 30.7308 18.8187 33.1802 25.2747 29.7253C31.7307 26.2704 34.1802 18.1813 30.7253 11.7253C27.2704 5.26926 19.1813 2.81981 12.7253 6.27472ZM10.5502 22.5219C9.25462 20.1009 9.105 17.3109 9.95355 14.9027C10.2879 13.9299 11.5288 13.5101 12.4354 14.063L18.0968 17.5674C18.6356 17.8897 18.9405 18.4593 18.9097 19.0864L18.6847 25.7409C18.6673 26.8494 17.6042 27.6015 16.5365 27.3179C14.0587 26.5676 11.8458 24.9429 10.5502 22.5219ZM25.5646 21.937L19.9032 18.4326C19.3644 18.1103 19.0595 17.5407 19.0903 16.9136L19.3153 10.2591C19.3581 9.19811 20.3484 8.42395 21.3907 8.66001C23.8651 9.28994 26.1034 10.9622 27.399 13.3832C28.6946 15.8042 28.8442 18.5942 27.9956 21.0024C27.69 22.143 26.4966 22.5374 25.5646 21.937Z" fill="#48C0F3"/>
<path d="M22.8148 22.6539L20.4415 19.1447C20.3857 19.0612 20.3019 18.9776 20.2182 18.9219L20.0227 18.7827C19.7993 18.6156 19.7993 18.3092 20.0227 18.1421L20.1902 18.0307C20.274 17.975 20.3578 17.8914 20.4136 17.8079L22.8428 14.3544C23.0382 14.0481 23.0661 13.6581 22.8428 13.3796C22.5636 13.0176 22.061 12.934 21.698 13.1847L18.1799 15.552C18.0961 15.6077 18.0124 15.6912 17.9565 15.7748L17.8169 15.9697C17.6494 16.1926 17.3423 16.1926 17.1747 15.9697L17.0631 15.8026C17.0072 15.7191 16.9235 15.6355 16.8397 15.5798L13.3774 13.1568C13.0703 12.9619 12.6794 12.934 12.4002 13.1568C12.0372 13.4353 11.9535 13.9367 12.2048 14.2987L14.5781 17.8079C14.6339 17.8914 14.7177 17.975 14.8014 18.0307L14.9969 18.1699C15.2203 18.337 15.2203 18.6434 14.9969 18.8105L14.8294 18.9219C14.7456 18.9776 14.6618 19.0612 14.606 19.1447L12.1489 22.626C11.9255 22.9602 11.9535 23.4059 12.2327 23.6844C12.5119 23.9629 12.9586 24.0186 13.2937 23.7958L16.8118 21.4285C16.8955 21.3728 16.9793 21.2892 17.0351 21.2057L17.1747 21.0107C17.3423 20.7879 17.6494 20.7879 17.8169 21.0107L17.9286 21.1778C17.9845 21.2614 18.0682 21.3449 18.152 21.4006L21.6701 23.8515C22.0051 24.0743 22.4519 24.0464 22.7311 23.7679C23.0103 23.4337 23.0382 22.9881 22.8148 22.6539Z" fill="#5E35B1"/>
<g clip-path="url(#clip1)">
<path fill-rule="evenodd" clip-rule="evenodd" d="M33.3175 4.81002C33.3177 4.59108 33.2337 4.38567 33.0797 4.23188C32.9245 4.07693 32.7186 3.99282 32.5004 3.99414L27.3136 4.06967C27.0116 4.07183 26.7663 4.3175 26.7646 4.61956C26.7629 4.92161 27.007 5.16537 27.3087 5.16284L32.2227 5.08944L32.1564 10.0031C32.1547 10.3052 32.3988 10.5489 32.7013 10.5472C33.0033 10.545 33.2486 10.2993 33.2495 9.99652L33.3175 4.81002V4.81002Z" fill="black"/>
</g>
<g clip-path="url(#clip2)">
<path fill-rule="evenodd" clip-rule="evenodd" d="M3.99441 31.5013C3.99402 31.7202 4.0779 31.9257 4.23182 32.0796C4.38688 32.2347 4.59274 32.3189 4.81091 32.3178L9.99774 32.2462C10.2998 32.2443 10.5453 31.9988 10.5472 31.6967C10.5491 31.3947 10.3052 31.1507 10.0035 31.1531L5.08949 31.2227L5.15952 26.3091C5.16144 26.007 4.91749 25.7631 4.61506 25.7646C4.31301 25.7665 4.06752 26.012 4.06636 26.3148L3.99441 31.5013V31.5013Z" fill="black"/>
</g>
</g>
<defs>
<clipPath id="clip0">
<rect width="38" height="36" fill="white"/>
</clipPath>
<clipPath id="clip1">
<rect width="8.70657" height="8.70657" fill="white" transform="translate(25 6.16118) rotate(-45.0438)"/>
</clipPath>
<clipPath id="clip2">
<rect width="8.70657" height="8.70657" fill="white" transform="translate(12.313 30.1565) rotate(135)"/>
</clipPath>
</defs>
</svg>
